{
  "asset": {
    "version": "2.0",
    "generator": "3dpea GLTFExporter"
  },
  "scenes": [
    {
      "name": "AuxScene",
      "nodes": [
        3
      ]
    }
  ],
  "scene": 0,
  "nodes": [
    {
      "name": "Can_1",
      "mesh": 0
    },
    {
      "name": "Can_2",
      "mesh": 1
    },
    {
      "name": "Can",
      "extras": {
        "name": "Can"
      },
      "children": [
        0,
        1
      ]
    },
    {
      "name": "Pepsi_Can",
      "extras": {
        "nowCenter": true
      },
      "children": [
        2
      ]
    }
  ],
  "bufferViews": [
    {
      "buffer": 0,
      "byteOffset": 0,
      "byteLength": 9504,
      "target": 34962,
      "byteStride": 12
    },
    {
      "buffer": 0,
      "byteOffset": 9504,
      "byteLength": 9504,
      "target": 34962,
      "byteStride": 12
    },
    {
      "buffer": 0,
      "byteOffset": 19008,
      "byteLength": 6336,
      "target": 34962,
      "byteStride": 8
    },
    {
      "buffer": 0,
      "byteOffset": 25344,
      "byteLength": 8832,
      "target": 34963
    },
    {
      "buffer": 0,
      "byteOffset": 34176,
      "byteLength": 71496,
      "target": 34962,
      "byteStride": 12
    },
    {
      "buffer": 0,
      "byteOffset": 105672,
      "byteLength": 71496,
      "target": 34962,
      "byteStride": 12
    },
    {
      "buffer": 0,
      "byteOffset": 177168,
      "byteLength": 47664,
      "target": 34962,
      "byteStride": 8
    },
    {
      "buffer": 0,
      "byteOffset": 224832,
      "byteLength": 60408,
      "target": 34963
    }
  ],
  "buffers": [
    {
      "byteLength": 285240,
      "uri": "data:application/octet-stream;base64,"
    }
  ],
  "accessors": [
    {
      "bufferView": 0,
      "componentType": 5126,
      "count": 792,
      "max": [
        0.03300559148192406,
        0.11973096430301666,
        0.03300559148192406
      ],
      "min": [
        -0.03300559148192406,
        0.008142733946442604,
        -0.03300558775663376
      ],
      "type": "VEC3"
    },
    {
      "bufferView": 1,
      "componentType": 5126,
      "count": 792,
      "max": [
        1,
        0.5851948261260986,
        1
      ],
      "min": [
        -1,
        -0.687286913394928,
        -1
      ],
      "type": "VEC3"
    },
    {
      "bufferView": 2,
      "componentType": 5126,
      "count": 792,
      "max": [
        0.999900221824646,
        0.8638286590576172
      ],
      "min": [
        0.00009987691737478599,
        -0.13467800617218018
      ],
      "type": "VEC2"
    },
    {
      "bufferView": 3,
      "componentType": 5123,
      "count": 4416,
      "max": [
        791
      ],
      "min": [
        0
      ],
      "type": "SCALAR"
    },
    {
      "bufferView": 4,
      "componentType": 5126,
      "count": 5958,
      "max": [
        0.032290268689394,
        0.12266974151134491,
        0.032290268689394
      ],
      "min": [
        -0.032290268689394,
        0.00002459826100675855,
        -0.0322902612388134
      ],
      "type": "VEC3"
    },
    {
      "bufferView": 5,
      "componentType": 5126,
      "count": 5958,
      "max": [
        1,
        1,
        1
      ],
      "min": [
        -1,
        -1,
        -1
      ],
      "type": "VEC3"
    },
    {
      "bufferView": 6,
      "componentType": 5126,
      "count": 5958,
      "max": [
        0.9996484518051147,
        0.9996485114097595
      ],
      "min": [
        0.0003515385906212032,
        0.05540043115615845
      ],
      "type": "VEC2"
    },
    {
      "bufferView": 7,
      "componentType": 5123,
      "count": 30204,
      "max": [
        5957
      ],
      "min": [
        0
      ],
      "type": "SCALAR"
    }
  ],
  "materials": [
    {
      "pbrMetallicRoughness": {
        "metallicFactor": 1,
        "roughnessFactor": 1,
        "baseColorTexture": {
          "index": 0
        }
      },
      "doubleSided": true,
      "name": "Pepsitexture"
    },
    {
      "pbrMetallicRoughness": {
        "baseColorFactor": [
          0.800000011920929,
          0.800000011920929,
          0.800000011920929,
          1
        ],
        "metallicFactor": 1,
        "roughnessFactor": 1
      },
      "doubleSided": true,
      "name": "metal"
    }
  ],
  "textures": [
    {
      "sampler": 0,
      "source": 0
    }
  ],
  "samplers": [
    {
      "magFilter": 9729,
      "minFilter": 9987,
      "wrapS": 10497,
      "wrapT": 10497
    }
  ],
  "images": [
    {
      "mimeType": "image/png",
      "uri": "data:image/png;base64,"
    }
  ],
  "meshes": [
    {
      "primitives": [
        {
          "mode": 4,
          "attributes": {
            "POSITION": 0,
            "NORMAL": 1,
            "TEXCOORD_0": 2
          },
          "indices": 3,
          "material": 0
        }
      ]
    },
    {
      "primitives": [
        {
          "mode": 4,
          "attributes": {
            "POSITION": 4,
            "NORMAL": 5,
            "TEXCOORD_0": 6
          },
          "indices": 7,
          "material": 1
        }
      ]
    }
  ]
}